Format                                   : Matroska
Format version                           : Version 2
File size                                : 1.42 GiB
Duration                                 : 2h 20mn
Overall bit rate                         : 1 441 Kbps
Encoded date                             : UTC 2005-10-10 16:08:40
Writing application                      : mkvmerge v5.6.0 ('Kenya Kane') built on May 27 2012 16:44:04
Writing library                          : libebml v1.2.3 + libmatroska v1.3.0

Video
ID                                       : 1
Format                                   : xvid
Codec ID                                 : xvid
Duration                                 : 2h 20mn
Bit rate                                 : 1 285 Kbps
Width                                    : 384 pixels
Height                                   : 288 pixels
Display aspect ratio                     : 4:3
Frame rate                               : 29.970 fps
Bits/(Pixel*Frame)                       : 0.388
Stream size                              : 1.26 GiB (89%)
Default                                  : Yes
Forced                                   : No

Audio
ID                                       : 2
Format                                   : MPEG Audio
Format version                           : Version 1
Format profile                           : Layer 3
Mode                                     : Joint stereo
Mode extension                           : MS Stereo
Muxing mode                              : Header stripping
Codec ID                                 : A_MPEG/L3
Codec ID/Hint                            : MP3
Duration                                 : 2h 20mn
Bit rate mode                            : Constant
Bit rate                                 : 128 Kbps
Channel(s)                               : 2 channels
Sampling rate                            : 44.1 KHz
Compression mode                         : Lossy
Stream size                              : 129 MiB (9%)
Default                                  : Yes
Forced                                   : No
 
http://www.shotpix.com/images/49931167323820395738.png 
http://www.shotpix.com/images/59892407036753943051.png 
http://www.shotpix.com/images/54151329781869836038.png 
http://www.shotpix.com/images/90819533439116645988.png 
http://www.shotpix.com/images/69687852495353354883.png 
http://www.shotpix.com/images/14223476125263414002.png 
http://www.shotpix.com/images/31260586183367706249.png 
http://www.shotpix.com/images/94165566762992860679.png 
http://www.shotpix.com/images/60757011253165537618.png 
http://www.shotpix.com/images/39621523693525804228.png

